PathFileType	4	(X/Y/Z)	W:\OA_GaitRetraining\ACL OpenCap study\PS1\Edited\Trimmed_C90_L101.trc
DataRate	CameraRate	NumFrames	NumMarkers	Units	OrigDataRate	OrigDataStartFrame	OrigNumFrames
200.00	200.00	       7	46	mm	200.00	19	       147
Frame#	Time	C7			R_Shoulder			L_Shoulder			Sternum			R_humerus			R_elbow_med			R_elbow_lat			R_forearm			R_wrist_radius			R_wrist_ulna			L_humerus			L_elbow_med			L_elbow_lat			L_forearm			L_wrist_radius			L_wrist_ulna			r.ASIS			r.PSIS			L.ASIS			L.PSIS			r_thigh1			r_thigh2			r_thigh3			r_thigh4			r_thigh5			r_knee			r_shank_antsup			r_sh2			r_sh3			r_sh4			r_ankle			r_calc			r_5meta			r_toe			L_thigh1			L_thigh2			L_thigh3			L_thigh4			L_knee			L_shank_antsup			L_sh2			L_sh3			L_ankle			L_calc			L_5meta			L_toe			
		X1	Y1	Z1	X2	Y2	Z2	X3	Y3	Z3	X4	Y4	Z4	X5	Y5	Z5	X6	Y6	Z6	X7	Y7	Z7	X8	Y8	Z8	X9	Y9	Z9	X10	Y10	Z10	X11	Y11	Z11	X12	Y12	Z12	X13	Y13	Z13	X14	Y14	Z14	X15	Y15	Z15	X16	Y16	Z16	X17	Y17	Z17	X18	Y18	Z18	X19	Y19	Z19	X20	Y20	Z20	X21	Y21	Z21	X22	Y22	Z22	X23	Y23	Z23	X24	Y24	Z24	X25	Y25	Z25	X26	Y26	Z26	X27	Y27	Z27	X28	Y28	Z28	X29	Y29	Z29	X30	Y30	Z30	X31	Y31	Z31	X32	Y32	Z32	X33	Y33	Z33	X34	Y34	Z34	X35	Y35	Z35	X36	Y36	Z36	X37	Y37	Z37	X38	Y38	Z38	X39	Y39	Z39	X40	Y40	Z40	X41	Y41	Z41	X42	Y42	Z42	X43	Y43	Z43	X44	Y44	Z44	X45	Y45	Z45	X46	Y46	Z46	

19	0.090	-161.97530	108.78297	1279.77673	-86.05454	-33.29677	1220.82434	-62.27757	247.92970	1240.87378	-31.68853	97.99513	1186.32947	-244.62105	-158.47258	1079.10193	-340.82620	-106.58414	1004.92078	-323.00159	-174.78360	1008.28711	-243.52028	-184.77408	877.02887	-245.09436	-179.19424	791.84778	-199.70132	-165.78841	813.82117	-136.58583	355.65103	1117.72656	-279.21393	342.30869	1001.05243	-242.51546	411.55804	1007.09747	-169.85887	397.01010	948.96667	-91.39436	335.67548	847.64673	-112.63149	380.34668	829.29102	-117.04221	-24.50449	818.79395	-302.69196	82.08056	852.39911	-105.36812	228.75005	820.34491	-304.59781	146.36093	853.10461	-53.75440	-65.39017	721.75427	44.04439	-53.59634	646.48608	32.03551	-78.93781	597.19769	-120.62557	-94.41228	633.65723	-27.12849	-76.06914	565.07813	124.46229	-51.71862	468.66150	179.25990	-54.38515	369.58539	210.35811	-26.73184	258.11090	105.35283	-54.29469	347.64459	127.20535	-23.28012	236.93161	205.54402	4.41181	90.49271	154.26070	67.94489	52.80108	314.58972	-21.04104	50.31976	352.11337	24.30786	100.06460	-30.38580	270.35226	712.97180	70.36834	260.39554	620.45581	-110.12521	314.71671	634.50372	-4.38201	295.47305	542.96503	101.41444	277.76736	463.42380	53.92786	263.20206	317.67322	-13.95562	269.81894	377.43512	-86.35936	234.23805	286.95276	-121.91791	236.38737	191.11870	-183.57159	194.32484	233.13927	-123.59940	248.70650	76.29151	-77.27934	185.14133	68.44427	
20	0.095	-145.41209	107.58135	1277.61230	-69.71043	-34.18163	1219.33386	-46.01891	246.69939	1239.38867	-15.22804	96.69382	1185.05847	-227.60657	-159.96962	1078.68140	-323.99597	-108.49142	1003.23285	-305.62485	-176.64445	1006.81934	-224.46982	-185.72885	876.76733	-224.92236	-180.43114	791.32690	-180.42885	-166.46541	813.51935	-120.45701	355.25278	1117.58716	-265.34250	342.04962	1003.01459	-227.94125	410.81665	1007.92242	-157.88669	396.67944	946.83191	-82.85004	336.06577	841.36432	-105.56091	380.99347	824.17786	-100.58183	-25.73730	817.19489	-285.40350	82.63092	851.89606	-88.18188	226.70178	819.45587	-287.41336	146.90433	852.11072	-36.15263	-65.52098	719.05688	58.66913	-53.80549	641.40051	47.51695	-80.85446	593.23218	-104.31857	-96.06929	632.58490	-12.24533	-77.95007	562.30365	139.13022	-52.72935	463.79550	194.18323	-54.55310	364.72470	226.81348	-26.19250	253.80157	119.92448	-54.53613	341.54590	143.81770	-22.81553	231.41344	225.71318	5.45043	88.94513	171.39561	68.09010	53.39937	333.69440	-16.63430	47.31601	371.20117	30.73158	95.98174	-14.33745	268.51291	714.53455	87.39833	259.41190	623.07544	-92.45978	314.39664	635.46582	14.46262	296.59006	545.39709	122.10099	279.34427	465.54486	71.72002	263.96146	321.08908	5.33535	270.46414	382.42822	-69.27037	235.51367	293.49466	-106.41621	238.09238	197.56709	-167.04353	196.73053	241.03792	-111.87273	250.05240	81.44740	-66.09492	186.64264	72.52206	
21	0.100	-129.16707	106.50568	1275.26587	-53.49900	-35.03867	1217.62708	-29.85072	245.55144	1237.61340	1.16424	95.56406	1183.56616	-210.96652	-161.16713	1077.74146	-306.87656	-110.31745	1001.14264	-288.19016	-178.74893	1005.01691	-205.76466	-186.26476	875.67816	-205.10031	-181.80844	790.25391	-160.88683	-167.26797	812.90558	-104.95770	354.62100	1117.22632	-251.70573	341.85025	1004.73840	-214.04425	409.82437	1008.18732	-146.65823	396.85153	943.89478	-77.44917	336.46436	834.42236	-99.37946	381.89624	818.79865	-83.75436	-27.14883	815.66144	-267.97110	82.98131	851.02338	-71.05363	224.71652	818.39520	-270.11758	147.25493	850.87329	-18.16506	-65.28397	716.11029	75.45395	-54.63358	636.68329	63.42533	-82.75388	589.08374	-87.68462	-97.37999	631.31195	3.15309	-79.66198	559.28174	153.49216	-53.59100	458.56567	208.90909	-54.52575	359.52774	242.81276	-25.50361	249.27765	134.94293	-54.69905	335.45645	160.16183	-22.21078	225.86406	242.71240	6.69523	87.57433	185.65517	69.55563	53.62809	348.39383	-12.38070	44.00774	388.60190	38.25529	89.07418	2.07542	266.41101	715.82068	105.39713	257.38394	625.52313	-74.61770	314.29276	636.25946	33.24898	297.49179	547.46179	142.97066	280.55804	467.67252	89.72028	264.69012	324.06052	24.81185	271.74484	386.73035	-51.96738	237.10138	299.63235	-91.40394	240.10188	202.92297	-152.91101	198.18979	245.77753	-97.64111	253.99435	86.89797	-50.74622	190.88588	78.17259	
22	0.105	-113.00883	105.49202	1272.90430	-37.29799	-35.90141	1215.74988	-13.67041	244.55354	1235.55322	17.48048	94.39173	1181.90588	-193.75858	-162.75758	1076.55005	-289.55829	-112.02104	998.58374	-270.27548	-180.75037	1003.20313	-186.51912	-187.39655	874.47400	-185.06876	-183.26434	788.84430	-141.20798	-168.25096	811.93707	-89.82701	354.29565	1116.69336	-238.13065	341.73572	1006.08698	-200.01224	408.95367	1008.43799	-135.72839	396.92929	940.93207	-71.64861	337.32581	827.22595	-94.30041	383.39215	813.18231	-67.13438	-28.44068	813.65430	-250.47736	82.88417	849.88879	-53.97923	222.88408	817.05237	-252.96217	147.57219	849.23438	-0.16582	-64.78467	712.64484	91.90847	-54.86768	631.31470	79.71709	-84.56271	584.77148	-69.92273	-100.52705	630.52850	18.90067	-81.35828	556.01263	167.48526	-54.17839	452.90649	223.58577	-54.44992	354.16223	258.34964	-24.70917	244.41197	149.85997	-54.84174	329.25732	175.94016	-21.42075	220.08818	255.19855	9.08133	84.65328	197.54489	71.55859	54.86727	359.81305	-9.44465	40.79098	404.18451	42.90318	80.49217	18.84707	264.24005	716.58142	123.82951	255.17421	627.07428	-56.60286	313.88837	636.98004	52.00803	298.21667	549.17773	163.81862	281.53336	469.75150	107.72823	265.40106	326.89365	44.16060	273.61832	390.67700	-34.49284	238.96857	305.16071	-76.79741	242.24240	209.38007	-139.63803	197.83736	248.93669	-79.25900	258.43011	93.49782	-30.81248	195.74542	84.92896	
23	0.110	-96.96134	104.46795	1270.51172	-21.11675	-36.83194	1213.75720	2.47715	243.67795	1233.27136	33.77712	93.33122	1180.15161	-176.42902	-164.59598	1075.12610	-271.98291	-113.60228	995.55780	-252.30325	-182.96051	1001.03229	-167.29681	-188.65053	872.85596	-164.91689	-184.79549	787.03815	-121.38692	-169.44972	810.59692	-75.00061	353.84122	1115.54028	-224.85458	341.45529	1007.23840	-186.24245	408.11990	1008.40521	-125.20210	397.12604	937.61169	-67.16350	338.24551	819.60950	-89.75346	384.71631	807.50085	-50.67331	-29.60039	811.27661	-233.12596	82.31604	848.47943	-36.91424	221.08057	815.36975	-235.63333	147.47615	847.66644	18.37485	-64.30623	708.90765	108.40018	-54.99996	625.75830	96.26559	-85.94743	580.16620	-51.48911	-101.82101	628.51538	34.88695	-82.87272	552.48438	181.22638	-54.41846	447.01917	238.44884	-54.30681	348.65112	272.91925	-23.31365	239.35866	164.82979	-54.96329	323.51157	190.75722	-20.75708	214.92249	264.78207	12.22634	82.27378	203.62767	73.35147	57.77425	363.49979	-7.50521	38.12562	415.54953	46.77941	66.97371	36.01731	262.11398	717.07965	141.50261	253.78085	628.16742	-38.41111	313.30731	637.63800	70.80661	298.82193	550.54156	184.17560	281.72141	471.44775	125.96030	265.88495	329.76749	63.27679	275.75110	393.91275	-16.40216	240.87048	309.48993	-60.37603	244.07184	215.53497	-122.68174	199.49135	250.96211	-57.02406	262.99249	99.54240	-9.22896	200.51459	91.03413	
24	0.115	-80.92429	103.39304	1267.99768	-4.98981	-37.83925	1211.75366	18.68696	242.87662	1230.73499	50.14217	92.32269	1178.24878	-159.38518	-166.12639	1072.90942	-254.14018	-115.08307	992.08075	-234.40443	-185.32045	998.74634	-148.00674	-190.13031	870.72217	-144.77151	-186.40382	785.21393	-101.48213	-170.77289	808.94556	-60.52925	353.50803	1114.29541	-211.20135	341.17560	1007.95569	-172.92938	406.79718	1007.97925	-115.02287	397.49207	934.04919	-62.83680	339.75134	811.98492	-85.68047	386.42346	801.69458	-34.77425	-30.41549	808.33966	-216.07843	81.32402	846.83252	-19.90951	219.06134	813.59839	-218.76024	147.29349	845.71649	36.88127	-63.62705	704.73236	126.90320	-54.05653	620.72101	113.17650	-86.47245	575.31055	-34.19457	-103.24411	625.85663	51.29852	-84.51694	548.49884	194.65540	-54.63685	441.11481	253.86766	-53.55762	343.64804	286.71646	-19.51324	235.58331	179.96500	-54.97746	319.83221	203.98203	-19.84736	211.24805	268.47614	16.50520	83.03854	205.03151	76.43653	57.79221	363.00226	-9.59812	36.58550	420.53757	46.80133	57.08152	53.55627	259.98206	717.62103	159.14124	252.91325	629.44403	-19.98505	312.49063	637.99268	89.75323	298.99435	551.73846	204.93965	281.79785	473.51682	145.66911	267.04181	332.50360	82.63882	278.09485	396.37619	2.81678	242.83589	312.16125	-41.11950	246.34529	219.15471	-103.90675	200.03427	252.20689	-34.40308	267.86920	104.17749	12.61269	205.95537	95.20029	
25	0.120	-64.95045	102.33004	1265.39172	11.14937	-38.87141	1209.73865	34.93198	242.16989	1228.14856	66.47921	91.31576	1176.31665	-142.43445	-167.51881	1070.13635	-236.07870	-116.51105	988.12744	-216.10689	-187.44992	996.11713	-128.78960	-191.72876	868.18250	-124.34290	-188.00803	782.56244	-81.95922	-171.62509	806.48718	-46.59159	352.97894	1112.72400	-197.44127	340.78812	1008.34766	-159.63393	405.79816	1007.39990	-105.42735	398.02374	930.24866	-59.47861	341.53201	804.30072	-82.79269	388.38181	796.06732	-19.44161	-31.01858	805.06824	-199.88243	79.87788	845.03009	-3.31365	217.84381	811.28131	-202.36594	146.86836	843.66791	55.92208	-64.45985	698.90350	145.34062	-53.84847	616.26642	131.10991	-85.78558	570.73273	-15.85892	-103.67779	622.58319	68.84160	-85.77618	544.63300	209.67340	-55.73571	436.86502	270.19366	-51.90821	340.93109	297.23563	-15.92667	231.61794	195.33492	-54.18433	320.05188	214.65326	-19.21241	210.38115	266.95386	21.79145	84.44572	204.96457	80.40245	56.82803	362.69418	-6.68783	39.49696	417.40460	47.89258	65.43229	70.91816	257.32397	717.27692	177.37201	251.59744	630.34247	-2.03992	312.16647	637.80408	108.96044	298.69193	552.82037	225.56256	281.50296	475.58023	166.03716	267.92007	335.02548	102.50462	279.58783	398.13214	23.38774	244.95061	313.22122	-20.07617	249.14781	221.36983	-83.52511	200.84663	252.45262	-12.56657	273.74765	107.51866	34.39830	212.07817	96.83270	
